<svg width="22" height="21" viewBox="0 0 22 21" fill="none" xmlns="http://www.w3.org/2000/svg">
<path d="M18.0635 0C18.372 5.66051e-05 18.6663 0.0582877 18.9463 0.174805C19.2264 0.291427 19.4721 0.466995 19.6836 0.700195L21.3047 2.33398C21.5363 2.54787 21.7104 2.79579 21.8262 3.07812C21.9419 3.36037 22 3.65657 22 3.9668C22 4.25843 21.9419 4.55016 21.8262 4.8418C21.7104 5.13346 21.5363 5.39655 21.3047 5.62988L6.0791 21H1.1582V16.042L16.4131 0.700195C16.6446 0.46691 16.9049 0.291462 17.1943 0.174805C17.4838 0.0581381 17.774 0 18.0635 0ZM16.5 13.7959C17.1175 14.1653 17.6099 14.6028 17.9766 15.1084C18.3432 15.6139 18.5264 16.217 18.5264 16.917C18.5263 18.2003 17.9179 19.2015 16.7021 19.9209C15.4864 20.6403 14.1643 21 12.7363 21C12.41 21.0015 12.1351 20.8897 11.9121 20.665C11.6893 20.4404 11.5784 20.1634 11.5791 19.834C11.5799 19.5043 11.6906 19.2269 11.9121 19.0029C12.1336 18.779 12.4084 18.6671 12.7363 18.667C13.6426 18.6678 14.4485 18.488 15.1533 18.1279C15.858 17.7679 16.2099 17.3642 16.21 16.917C16.21 16.6448 16.0849 16.3915 15.834 16.1582C15.5831 15.925 15.2357 15.711 14.792 15.5166L16.5 13.7959ZM3.47363 17.0332V18.667H5.09473L16.4707 7.2334L14.8213 5.57129L3.47363 17.0332ZM4.63184 0C6.02113 0.000836476 7.14021 0.317723 7.98926 0.949219C8.8382 1.58071 9.26263 2.43074 9.2627 3.5C9.2627 4.2583 8.98342 4.93924 8.42383 5.54199C7.8642 6.14474 6.73523 6.81584 5.03711 7.55469C3.91785 8.04078 3.1843 8.40046 2.83691 8.63379C2.48955 8.86712 2.31543 9.10065 2.31543 9.33398C2.31484 9.50961 2.4263 9.67997 2.64844 9.84473C2.87072 10.0095 3.1748 10.1697 3.56055 10.3252L1.82324 12.0752C1.26378 11.7455 0.820198 11.3616 0.492188 10.9238C0.164191 10.486 7.3402e-05 9.95603 0 9.33398C0 8.51814 0.299274 7.83286 0.897461 7.27832C1.49571 6.72377 2.56649 6.10536 4.11035 5.4248C5.32684 4.86017 6.10408 4.46638 6.44141 4.24316C6.77859 4.01998 6.94727 3.77216 6.94727 3.5C6.94794 3.18908 6.76017 2.91682 6.38379 2.68359C6.00715 2.4503 5.42287 2.33402 4.63184 2.33398C4.1495 2.33398 3.74404 2.39218 3.41602 2.50879C3.08802 2.62543 2.78868 2.81967 2.51855 3.0918C2.30627 3.30569 2.0451 3.43181 1.73633 3.4707C1.42782 3.50947 1.14816 3.42259 0.897461 3.20898C0.646584 3.01454 0.501487 2.76131 0.462891 2.4502C0.424313 2.13911 0.511372 1.85725 0.723633 1.60449C1.08953 1.15727 1.61531 0.777908 2.30078 0.466797C2.98621 0.155743 3.76349 0 4.63184 0Z" fill="#3FAD57"/>
</svg>
