<svg width="150" height="48" viewBox="0 0 150 48" fill="none" xmlns="http://www.w3.org/2000/svg">
<path d="M116.104 3.05491C116.104 0.334117 118.032 -0.779653 120.389 0.5803L148.23 16.6555C150.586 18.0175 150.586 20.2438 148.23 21.6028C148.23 21.6028 119.128 37.7162 118.733 37.9328C118.343 38.1488 118.19 38.5126 118.19 39.3615V39.7141C124.487 36.2287 149.164 22.5695 149.444 22.4182C149.759 22.2512 149.96 22.3685 149.96 22.5715C149.96 22.7768 149.965 23.3977 149.965 23.3977C149.965 23.415 149.975 23.8779 149.516 24.1369C149.089 24.3779 122.827 38.9019 118.191 41.4699V42.884C124.489 39.3985 149.167 25.7395 149.445 25.5901C149.76 25.4191 149.961 25.5394 149.961 25.7424C149.961 25.9456 149.966 26.5666 149.966 26.5666C149.966 26.583 149.976 27.0485 149.517 27.3078C149.096 27.5438 123.457 41.7243 118.367 44.5373C118.516 44.9043 118.789 45.2062 119.278 45.2063C119.638 45.2063 120.05 45.0718 120.504 44.8098L149.952 28.5578C149.952 28.5578 150.206 30.9798 148.269 31.9309C147.188 32.4629 121.539 46.6037 121.539 46.6037C120.765 47.0517 120.004 47.2795 119.277 47.2795C117.387 47.2794 116.118 45.7478 116.118 43.4748V35.5168C116.111 35.413 116.104 35.3102 116.104 35.2014V3.05491Z" fill="white"/>
<path d="M96.46 43.4298C96.46 45.6738 94.3573 45.9601 93.3193 45.9601C92.9565 45.9601 92.7217 45.921 92.7217 45.921V44.0509C92.7217 44.0509 92.8388 44.0656 93.0068 44.0656C93.4489 44.0655 94.2148 43.962 94.2148 43.2091V36.5773L96.46 36.5763V43.4298ZM40.9756 36.421C42.7935 36.421 43.9862 37.8481 43.9863 39.9259C43.9863 42.0398 42.6509 43.417 40.873 43.4171C39.7923 43.4171 39.1821 42.79 39.1719 42.7794H39.1465C39.1471 42.7855 39.1719 43.0181 39.1719 43.3527V45.8566H36.9268V36.5763H38.9521V36.9142C38.9521 37.13 38.9279 37.3325 38.9268 37.3419H38.9521C38.9671 37.3197 39.5792 36.4211 40.9756 36.421ZM54.0576 36.421C56.1725 36.4212 57.8594 37.8357 57.8594 39.9396C57.8592 42.0294 56.1722 43.4181 54.0693 43.4181C51.9674 43.4181 50.2795 42.0294 50.2793 39.9396C50.2793 37.8356 51.9676 36.421 54.0576 36.421ZM86.3916 36.421C88.2086 36.421 89.0518 37.4347 89.0518 37.4347L88.1064 38.9396C88.1064 38.9396 87.4571 38.2912 86.5342 38.2911C85.4714 38.2911 84.9377 39.096 84.9375 39.8868C84.9375 40.6778 85.4853 41.549 86.6133 41.549C87.5482 41.5488 88.4434 40.7433 88.4434 40.7433L89.2598 42.3146C89.2418 42.3343 88.2436 43.4181 86.3916 43.4181C84.0028 43.4179 82.668 41.7561 82.668 39.9132C82.668 38.1213 83.9899 36.4212 86.3916 36.421ZM65.6309 43.2599H63.5293V42.8195C63.5293 42.6162 63.5414 42.4491 63.542 42.4415H63.5166C63.5121 42.4494 62.9524 43.4171 61.582 43.4171C59.7662 43.417 58.5713 41.9891 58.5713 39.9122C58.5713 37.7963 59.8432 36.4211 61.6211 36.421C62.958 36.421 63.3658 36.9429 63.373 36.9523H63.3994C63.3993 36.9516 63.3867 36.8229 63.3867 36.6554V33.9806H65.6309V43.2599ZM69.4453 40.4962C69.4453 41.1192 69.6922 41.379 70.1592 41.379C71.1182 41.379 71.5742 40.5353 71.5742 39.5363V36.5763H73.8193V43.2609H71.6641V42.6759C71.6641 42.4561 71.6914 42.2609 71.6914 42.2609H71.6641C71.3011 42.9759 70.4712 43.4171 69.5762 43.4171C68.2522 43.4171 67.2012 42.7922 67.2012 40.9113L67.2002 36.5763H69.4453V40.4962ZM100.275 40.4962C100.275 41.1192 100.522 41.379 100.989 41.379C101.949 41.379 102.404 40.5353 102.404 39.5363V36.5763H104.649V43.2609H102.494V42.6759C102.494 42.4561 102.521 42.2609 102.521 42.2609H102.494C102.131 42.9759 101.301 43.4171 100.405 43.4171C99.0823 43.4171 98.0312 42.7923 98.0312 40.9113V36.5763H100.275V40.4962ZM92.5557 43.2609H90.3105V36.5763H92.5557V43.2609ZM49.4766 36.4591C49.6055 36.4591 49.7354 36.4865 49.7354 36.4865V38.6925C49.7354 38.6925 49.5542 38.6534 49.2812 38.6534C48.7482 38.6535 47.8797 38.8225 47.5547 39.8214C47.4767 40.0664 47.4375 40.3666 47.4375 40.7286V43.2599H45.1934L45.1943 36.5763H47.3486V37.7072C47.3486 37.9259 47.3228 38.1174 47.3223 38.1212H47.3486C47.6337 37.2133 48.4776 36.4591 49.4766 36.4591ZM77.7236 38.7823H78.3604L79.6846 36.5763H82.123L80.1641 39.6134V39.6398L82.3965 43.2599H79.8389L78.4238 40.6642H77.7227V43.2599H75.4785L75.4795 33.9806H77.7236V38.7823ZM40.4189 38.3156C39.745 38.3156 39.1075 38.8082 39.1074 39.963C39.1074 40.768 39.5359 41.5597 40.4189 41.5597C41.1189 41.5596 41.7295 40.9889 41.7295 39.963C41.7294 38.9642 41.1968 38.3157 40.4189 38.3156ZM62.1406 38.3156C61.4396 38.3156 60.8291 38.8863 60.8291 39.9122C60.8291 40.9112 61.3616 41.5597 62.1406 41.5597C62.8155 41.5595 63.4521 41.067 63.4521 39.9122C63.4521 39.1074 63.0234 38.3158 62.1406 38.3156ZM54.0693 38.2911C53.2533 38.2911 52.5518 38.9276 52.5518 39.9396C52.5519 40.9374 53.2524 41.548 54.0693 41.548C54.8872 41.548 55.5887 40.9384 55.5889 39.9396C55.5889 38.9266 54.8883 38.2912 54.0693 38.2911ZM92.5293 35.7335H90.3369V33.9806H92.5293V35.7335ZM96.4346 35.7335H94.2402V33.9806H96.4346V35.7335ZM29.1836 27.8575C29.1834 30.1033 27.08 30.3878 26.042 30.3878C25.6828 30.3878 25.4499 30.3505 25.4453 30.3497V28.4806C25.4476 28.4809 25.5631 28.4943 25.7305 28.4943C26.1725 28.4942 26.9375 28.3898 26.9375 27.6368V21.006L29.1836 21.005V27.8575ZM82.5762 27.8575C82.576 30.1033 80.4725 30.3878 79.4346 30.3878C79.0763 30.3878 78.8425 30.3505 78.8379 30.3497V28.4806C78.8402 28.4809 78.9557 28.4943 79.1221 28.4943C79.5641 28.4942 80.3301 28.3897 80.3301 27.6368V21.006L82.5762 21.005V27.8575ZM22.3701 20.8507C24.2511 20.8507 25.3799 21.8753 25.3799 23.5773V27.6906H23.3301V27.2882C23.3301 27.0672 23.3574 26.8732 23.3574 26.8732H23.3301C23.3301 26.8732 22.8372 27.8456 21.4365 27.8458C20.1906 27.8458 19.1652 27.0164 19.165 25.6925C19.165 23.7446 22.0058 23.5236 23.0449 23.5236H23.1357V23.4073C23.1357 22.8475 22.7082 22.6662 22.1504 22.6661C21.3054 22.6661 20.3447 23.3029 20.3447 23.3029L19.5664 21.7198C19.5922 21.7006 20.7398 20.8507 22.3701 20.8507ZM7.05957 27.6896H4.95801V27.2482C4.95801 27.0402 4.96973 26.8722 4.96973 26.8722H4.94434C4.94434 26.8722 4.38577 27.8448 3.00977 27.8448C1.1939 27.8447 0 26.4168 0 24.3419C0.000153554 22.2252 1.27201 20.8498 3.0498 20.8497C4.38001 20.8497 4.78963 21.3666 4.80078 21.381H4.82812C4.82744 21.374 4.81543 21.2464 4.81543 21.0831V18.4093H7.05957V27.6896ZM74.7656 27.6896H72.6621V27.2482C72.6621 27.0402 72.6748 26.8722 72.6748 26.8722H72.6514C72.6514 26.8722 72.0908 27.8448 70.7158 27.8448C68.9 27.8447 67.7051 26.4168 67.7051 24.3419C67.7062 22.2252 68.9781 20.8499 70.7568 20.8497C72.0854 20.8497 72.4962 21.366 72.5078 21.381H72.5342C72.5334 21.374 72.5205 21.2464 72.5205 21.0831V18.4093H74.7656V27.6896ZM86.665 20.8497C88.2219 20.8498 89.0127 21.6154 89.0127 21.6154L88.248 23.213C88.248 23.213 87.5989 22.6662 86.665 22.6661C86.327 22.6661 86.0029 22.7583 86.0029 22.9923C86.0032 23.4972 89.1309 23.5767 89.1309 25.7296C89.1306 26.8725 88.1164 27.8439 86.3916 27.8439C84.7296 27.8438 83.7318 26.8713 83.7178 26.8575L84.6787 25.3536C84.6913 25.365 85.4271 26.0275 86.3789 26.0275C86.7169 26.0274 87.04 25.9369 87.04 25.7159C87.039 25.1322 83.9131 25.0665 83.9131 22.8868C83.9133 21.6281 85.1202 20.8497 86.665 20.8497ZM100.275 24.923C100.275 25.547 100.522 25.8058 100.989 25.8058C101.949 25.8058 102.404 24.963 102.404 23.963V21.005H104.649V27.6896H102.494V27.1056C102.494 26.8895 102.52 26.698 102.521 26.6896H102.494C102.131 27.4034 101.301 27.8439 100.405 27.8439C99.0823 27.8439 98.0312 27.222 98.0312 25.34V21.005H100.275V24.923ZM63.8525 20.8497C65.8265 20.8497 66.9424 22.2252 66.9424 24.0802C66.9424 24.3012 66.8906 24.7823 66.8906 24.7823H62.6729C62.8409 25.5983 63.5165 25.9747 64.2305 25.9747C65.1903 25.9745 66.0723 25.2999 66.0723 25.2999L66.9033 26.8702C66.9033 26.8702 65.8269 27.8429 64.0479 27.8429C61.6609 27.8428 60.376 26.1169 60.376 24.34C60.3751 22.3812 61.6979 20.8499 63.8525 20.8497ZM35.126 20.8507C36.4749 20.8508 37.5264 21.4747 37.5264 23.3556V27.6906H35.2812V23.7706C35.2812 23.1477 35.0348 22.8879 34.542 22.8878C33.84 22.8878 33.4128 23.2768 33.2178 23.8488C33.1269 24.1087 33.0879 24.4077 33.0879 24.7316V27.6906H30.8428V21.005H32.998V21.589C32.998 21.8053 32.9718 21.997 32.9707 22.005H32.998C33.3091 21.4861 33.9452 20.8507 35.126 20.8507ZM57.1191 20.8507C58.3391 20.8507 59.2861 21.5136 59.2861 23.3556V27.6906H57.041V23.7316C57.041 23.2396 56.9504 22.8879 56.5225 22.8878C55.8085 22.8878 55.4311 23.4086 55.2891 24.1466C55.2372 24.3794 55.2373 24.6532 55.2373 24.924V27.6906H52.9912V23.7316C52.9912 23.2397 52.9014 22.888 52.4736 22.8878C51.7717 22.8878 51.408 23.38 51.252 24.0948C51.2 24.3418 51.1885 24.64 51.1885 24.924V27.6906H48.9434V21.005H51.0986V21.589C51.0986 21.8053 51.0724 21.997 51.0713 22.005H51.0986C51.4097 21.5381 52.0335 20.8509 53.083 20.8507C53.926 20.8507 54.6011 21.2266 54.9521 21.9786H54.9775C55.3285 21.4217 56.1192 20.8508 57.1191 20.8507ZM10.9658 27.6896H8.71973V21.005H10.9658V27.6896ZM18.3105 22.1349L15.8701 25.2111C15.5441 25.6131 15.2734 25.8204 15.2734 25.8204V25.8448C15.28 25.8434 15.4498 25.8068 15.8701 25.8068H18.375V27.6896H12.2363V26.5734L14.6895 23.4972C15.0264 23.0823 15.2734 22.8878 15.2734 22.8878V22.8615C15.2734 22.8615 15.1044 22.8878 14.6895 22.8878H12.3398V21.006H18.3105V22.1349ZM44.3125 27.6896H42.0674V21.005H44.3125V27.6896ZM78.6699 27.6896H76.4258V21.005H78.6699V27.6896ZM92.5947 23.212H93.2295L94.5537 21.004H96.9932L95.0322 24.0421V24.0675L97.2646 27.6886H94.71L93.2939 25.0919H92.5947V27.6886H90.3486V18.4093H92.5947V23.212ZM22.9541 24.8077C22.2401 24.8077 21.4219 25.0154 21.4219 25.5734C21.4229 25.8852 21.6169 26.1318 22.0586 26.132C22.6426 26.132 23.1621 25.4973 23.1621 24.9513V24.8077H22.9541ZM3.56836 22.7443C2.86745 22.7443 2.25796 23.3152 2.25781 24.3419C2.25781 25.3409 2.79036 25.9894 3.56836 25.9894C4.24323 25.9892 4.87891 25.4967 4.87891 24.3419C4.87877 23.5362 4.45098 22.7445 3.56836 22.7443ZM71.2744 22.7443C70.5735 22.7443 69.963 23.3152 69.9629 24.3419C69.9639 25.3409 70.4964 25.9894 71.2744 25.9894C71.9503 25.9892 72.5859 25.4967 72.5859 24.3419C72.5858 23.5362 72.156 22.7445 71.2744 22.7443ZM63.8008 22.5372C63.1519 22.5373 62.8406 23.0042 62.7246 23.4972H64.6836C64.6836 22.9922 64.3338 22.5372 63.8008 22.5372ZM10.9385 20.1613H8.74609V18.4093H10.9385V20.1613ZM29.1562 20.1613H26.9639V18.4093H29.1562V20.1613ZM44.2861 20.1613H42.0938V18.4093H44.2861V20.1613ZM78.6445 20.1613H76.4521V18.4093H78.6445V20.1613ZM82.5498 20.1613H80.3574L80.3564 18.4093H82.5498V20.1613ZM59.3115 5.27942C60.5285 5.27944 61.126 5.92466 61.1289 5.92786H61.167C61.166 5.92111 61.1553 5.84686 61.1553 5.77258V5.43469H63.2578V11.5079C63.2578 13.9479 61.3115 14.8439 59.4805 14.8439C58.5845 14.8439 57.5982 14.5842 56.9502 14.2472L57.5859 12.547C57.6028 12.5556 58.4286 12.9757 59.4678 12.9757C60.2726 12.9756 61.0126 12.6762 61.0127 11.6906V11.4689C61.0127 11.3931 61.0246 11.2334 61.0254 11.2238H60.999C60.6091 11.6904 60.1029 11.924 59.3252 11.924C57.3135 11.9238 56.3146 10.2764 56.3145 8.56262C56.3145 6.86262 57.2875 5.27942 59.3115 5.27942ZM103.468 13.5597H101.82L102.792 9.96301H104.934L103.468 13.5597ZM4.64648 2.68274C6.63975 2.68281 7.62439 3.72865 7.62988 3.7345L6.66992 5.58997C6.6507 5.57327 5.72348 4.77356 4.62012 4.77356C4.15217 4.77361 3.63285 4.98122 3.63281 5.50012C3.63281 6.66806 7.81205 6.4602 7.8125 9.3927C7.8125 10.9367 6.63102 12.2745 4.54102 12.2745C2.37078 12.2744 1.16585 10.9619 1.15527 10.9503L2.34961 9.22375C2.34961 9.22375 3.40036 10.1837 4.56836 10.1837C5.03626 10.1837 5.54086 10.0022 5.54102 9.44543C5.54102 8.34148 1.36263 8.38017 1.3623 5.52551C1.3623 3.81251 2.80248 2.68274 4.64648 2.68274ZM20.0732 5.27942C22.189 5.27956 23.8758 6.69328 23.876 8.79602C23.876 10.885 22.1879 12.2745 20.085 12.2745C17.982 12.2745 16.2949 10.886 16.2949 8.79602C16.2961 6.69317 17.9833 5.27942 20.0732 5.27942ZM31.9326 5.27942C33.8145 5.27944 34.9432 6.30421 34.9434 8.00403V12.1183H32.8936V11.7159C32.8936 11.4961 32.9199 11.3009 32.9199 11.3009H32.8936C32.8936 11.3009 32.3997 12.2743 30.999 12.2745C29.753 12.2745 28.7266 11.4442 28.7266 10.1202C28.7266 8.17338 31.5683 7.95229 32.6074 7.95227H32.6982V7.83508C32.6981 7.27736 32.2707 7.0959 31.7129 7.09583C30.8689 7.09583 29.9072 7.73254 29.9072 7.73254L29.1299 6.14954C29.1416 6.14075 30.293 5.27942 31.9326 5.27942ZM49.2158 5.27942C51.0977 5.27945 52.2264 6.30421 52.2266 8.00403V12.1183H50.1768V11.7159C50.1768 11.4961 50.2031 11.3009 50.2031 11.3009H50.1768C50.1768 11.3009 49.6839 12.2743 48.2822 12.2745C47.0362 12.2745 46.0107 11.4442 46.0107 10.1202C46.0108 8.17336 48.8525 7.95229 49.8906 7.95227H49.9805V7.83508C49.9804 7.27737 49.5538 7.0959 48.9961 7.09583C48.1521 7.09583 47.1904 7.73254 47.1904 7.73254L46.4131 6.14954C46.4258 6.13996 47.577 5.27942 49.2158 5.27942ZM73.1963 5.27942C75.0782 5.27944 76.2069 6.3042 76.207 8.00403V12.1183H74.1562V11.7159C74.1563 11.4961 74.1816 11.3009 74.1816 11.3009H74.1562C74.1562 11.3009 73.6634 12.2743 72.2617 12.2745C71.0167 12.2745 69.9902 11.4442 69.9902 10.1202C69.9893 8.17335 72.8311 7.95228 73.8691 7.95227H73.9609V7.83508C73.9608 7.27737 73.5333 7.0959 72.9756 7.09583C72.1326 7.09583 71.1699 7.73254 71.1699 7.73254L70.3926 6.14954C70.4052 6.14008 71.5564 5.27942 73.1963 5.27942ZM96.5381 9.35461C96.5382 9.97736 96.786 10.2364 97.2529 10.2365C98.2128 10.2365 98.6679 9.39348 98.668 8.39465V5.43469H100.912V12.1183H98.7578V11.5353C98.7578 11.3143 98.7832 11.1193 98.7832 11.1193H98.7578C98.3948 11.8332 97.5639 12.2745 96.667 12.2745C95.3441 12.2745 94.2941 11.6513 94.2939 9.77063V5.43469H96.5381V9.35461ZM27.1973 9.35461C27.1973 9.99037 27.3134 10.2101 27.8203 10.2101C27.9579 10.2101 28.0842 10.1981 28.0918 10.1974V12.1447C28.0794 12.1462 27.7735 12.1837 27.418 12.1837C26.2241 12.1837 24.9522 11.8972 24.9521 9.65247V2.83899H27.1973V9.35461ZM81.2012 2.78723C81.5941 2.78723 81.8653 2.82479 81.876 2.82629V4.72278C81.869 4.72163 81.7157 4.69644 81.5137 4.69641C81.0718 4.69641 80.3841 4.77425 80.3838 5.34485V5.43567H84.9512V12.1193H82.7061L82.707 7.18762H80.3848V12.1183H78.1396V7.18762H77.3203V5.43469H78.1387V5.27942C78.1387 3.08551 80.1231 2.78726 81.2012 2.78723ZM11.3525 7.64172H11.9893L13.3125 5.43469H15.752L13.791 8.47083V8.49719L16.0244 12.1183H13.4678L12.0518 9.52356H11.3506V12.1183H9.10547V2.83899H11.3525V7.64172ZM88.8564 7.64172H89.4922L90.8164 5.43469H93.2559L91.2959 8.47083V8.49719L93.5283 12.1183H90.9707L89.5566 9.52356H88.8555V12.1183H86.6113L86.6123 2.83899H88.8564V7.64172ZM45.1553 6.5636L42.7158 9.63879C42.3949 10.0367 42.1258 10.244 42.1191 10.2491V10.2755C42.1225 10.2747 42.2922 10.2355 42.7158 10.2355H45.2207V12.1173H39.083L39.082 11.0021L41.5352 7.9259C41.87 7.51386 42.1147 7.32001 42.1191 7.31653V7.29016C42.1191 7.29016 41.9511 7.31652 41.5352 7.31653H39.1855V5.43469H45.1553V6.5636ZM69.1992 5.3175C69.3271 5.31753 69.4549 5.34209 69.459 5.3429V7.54895C69.4543 7.54796 69.2733 7.50989 69.0049 7.50989C68.472 7.50991 67.6034 7.67834 67.2793 8.67786C67.2003 8.92481 67.1611 9.22315 67.1611 9.58606V12.1173H64.916L64.917 5.43469H67.0713V6.5636C67.0713 6.78446 67.0449 6.97864 67.0449 6.97864H67.0713C67.3563 6.07064 68.2002 5.3175 69.1992 5.3175ZM32.5176 9.23645C31.8037 9.23645 30.9856 9.44424 30.9854 10.0021C30.9844 10.315 31.1794 10.5605 31.6211 10.5607C32.2051 10.5607 32.7256 9.92503 32.7256 9.37903V9.23645H32.5176ZM49.8008 9.23645C49.0869 9.23645 48.2678 9.44424 48.2676 10.0021C48.2686 10.315 48.4626 10.5605 48.9033 10.5607C49.4873 10.5607 50.0078 9.92503 50.0078 9.37903V9.23645H49.8008ZM73.7803 9.23645C73.0674 9.23645 72.2483 9.44424 72.248 10.0021C72.247 10.315 72.4421 10.5605 72.8838 10.5607C73.4668 10.5607 73.9873 9.92503 73.9873 9.37903V9.23645H73.7803ZM20.0859 7.14856C19.269 7.14856 18.5675 7.78418 18.5674 8.79602C18.5674 9.79502 19.2689 10.4054 20.0859 10.4054C20.9049 10.4054 21.6045 9.79501 21.6045 8.79602C21.6044 7.78319 20.9049 7.14857 20.0859 7.14856ZM59.7666 7.14856C58.9746 7.14856 58.5723 7.71947 58.5723 8.48547C58.5723 9.3154 58.9615 10.0548 59.8564 10.0548C60.4404 10.0548 61.0645 9.75599 61.0645 8.58899C61.0643 7.40734 60.4405 7.1486 59.7666 7.14856ZM84.9268 4.58997H82.7334V2.83899H84.9268V4.58997ZM4.54102 1.3595H4.56738L5.17773 0.295044H6.92969L5.64453 2.24231H3.46387L2.18066 0.295044H3.93262L4.54102 1.3595Z" fill="white"/>
</svg>
