<svg width="21" height="21" viewBox="0 0 21 21" fill="none" xmlns="http://www.w3.org/2000/svg">
<path d="M17.8496 17.9814C16.9046 18.9089 15.8065 19.6441 14.5557 20.1865C13.3049 20.7289 11.953 21 10.5 21C10.2376 21 9.97071 20.9822 9.69922 20.9473C9.42762 20.9123 9.1691 20.8778 8.9248 20.8428L14.2539 11.6816L17.8496 17.9814ZM7.69141 20.6064C6.09892 20.1864 4.68097 19.4169 3.43848 18.2969C2.19604 17.1769 1.29536 15.8465 0.735352 14.3066H11.3135L7.69141 20.6064ZM20.6592 7.875C20.7641 8.29487 20.8466 8.72378 20.9082 9.16113C20.9698 9.59855 21.0007 10.0451 21 10.5C21 11.7249 20.7858 12.8976 20.3574 14.0176C19.9291 15.1374 19.3735 16.1437 18.6904 17.0361L13.3877 7.875H20.6592ZM7.6123 13.125H0.34082C0.23586 12.7051 0.153381 12.2763 0.0917969 11.8389C0.0302029 11.4014 -0.000699965 10.955 0 10.5C2.63094e-05 9.25759 0.201042 8.08485 0.603516 6.98242C1.00599 5.88006 1.57467 4.87377 2.30957 3.96387L7.6123 13.125ZM10.5 0C10.7274 1.4861e-08 10.9898 0.0134627 11.2871 0.0400391C11.5846 0.0666391 11.8566 0.0975359 12.1016 0.131836L6.74609 9.31934L3.15039 3.01855C4.0953 2.09125 5.1939 1.35687 6.44531 0.814453C7.69686 0.272004 9.04827 0 10.5 0ZM13.335 0.393555C14.9275 0.813555 16.3411 1.5841 17.5752 2.7041C18.8092 3.82406 19.7054 5.15443 20.2646 6.69434H9.66016L13.335 0.393555Z" fill="#3FAD57"/>
</svg>
