<svg width="23" height="23" viewBox="0 0 23 23" fill="none" xmlns="http://www.w3.org/2000/svg">
<path d="M3.34375 15.0254C3.34375 16.2968 3.79641 17.3856 4.70215 18.291C5.60785 19.1963 6.69695 19.6484 7.96875 19.6484H18.7217C18.6061 20.1107 18.3752 20.5111 18.0283 20.8486C17.6814 21.1861 17.2569 21.3834 16.7559 21.4404L4.15332 22.9717C3.5174 23.068 2.94388 22.9189 2.43359 22.5244C1.9233 22.1299 1.62961 21.614 1.55176 20.9775L0.0195312 8.35059C-0.0575297 7.71493 0.0960409 7.14634 0.481445 6.64551C0.866823 6.14475 1.37784 5.85638 2.01367 5.7793L3.34375 5.60547V15.0254ZM20.6875 0C21.3234 6.70397e-06 21.868 0.226618 22.3213 0.679688C22.7745 1.13273 23.0007 1.67666 23 2.31152V15.0254C23 15.661 22.7736 16.2052 22.3213 16.6582C21.8688 17.1113 21.3242 17.3377 20.6875 17.3369H7.96875C7.33281 17.3369 6.78842 17.1105 6.33594 16.6582C5.8836 16.2059 5.65702 15.6618 5.65625 15.0254V2.31152C5.65627 1.67588 5.88273 1.13196 6.33594 0.679688C6.78919 0.227382 7.33358 0.000770538 7.96875 0H20.6875ZM19.2129 9.24609C17.9027 9.24617 16.7808 9.69936 15.8467 10.6045C14.9124 11.5099 14.415 12.5987 14.3564 13.8701C15.6669 13.8701 16.7805 13.4171 17.6963 12.5117C18.612 11.6063 19.1173 10.5175 19.2129 9.24609ZM9.50098 9.24609C9.59733 10.5175 10.1028 11.6063 11.0186 12.5117C11.9342 13.417 13.047 13.87 14.3564 13.8701C14.2986 12.5988 13.8033 11.5098 12.8691 10.6045C11.935 9.69919 10.812 9.24617 9.50098 9.24609ZM14.3584 3.46777C14.0325 3.467 13.7579 3.57739 13.5352 3.7998C13.3124 4.02245 13.2014 4.29719 13.2021 4.62305V4.91211L12.9131 4.79688C12.6241 4.68133 12.3349 4.6476 12.0459 4.69531C11.7568 4.74309 11.525 4.91145 11.3516 5.20117C11.1975 5.47083 11.1448 5.77487 11.1934 6.1123C11.242 6.44959 11.4301 6.68531 11.7568 6.81934L12.0459 6.93457L11.7568 7.05078C11.4292 7.18563 11.2365 7.41666 11.1787 7.74414C11.1209 8.07156 11.1782 8.38004 11.3516 8.66895C11.5057 8.93841 11.7324 9.10232 12.0312 9.16016C12.3303 9.21795 12.6248 9.18882 12.9131 9.07324L13.2021 8.95703V9.24609C13.2021 9.57357 13.3132 9.8484 13.5352 10.0703C13.7571 10.2922 14.0316 10.4031 14.3584 10.4023L14.4775 10.3975C14.7526 10.3732 14.9874 10.2635 15.1816 10.0693C15.4035 9.84745 15.5144 9.57272 15.5137 9.24609V8.95703L15.8027 9.07324C16.0917 9.18867 16.3856 9.21792 16.6846 9.16016C16.9836 9.10238 17.2099 8.93847 17.3633 8.66895C17.5367 8.38008 17.5948 8.0715 17.5371 7.74414C17.4793 7.41684 17.2863 7.18566 16.959 7.05078L16.6699 6.93457L16.959 6.81934C17.2864 6.68447 17.4739 6.44772 17.5225 6.11035C17.5709 5.77302 17.5181 5.46998 17.3633 5.20117C17.1899 4.91238 16.9588 4.74417 16.6699 4.69629C16.381 4.64853 16.0917 4.68217 15.8027 4.79688L15.5137 4.91211V4.62305C15.5136 4.29565 15.4026 4.02091 15.1807 3.7998C14.9587 3.57873 14.6843 3.46861 14.3584 3.46777ZM14.3564 5.7793C14.6817 5.7793 14.9573 5.89039 15.1816 6.1123C15.4057 6.3341 15.5167 6.60815 15.5137 6.93457C15.5106 7.26113 15.3994 7.53616 15.1807 7.75879C14.9617 7.98147 14.6864 8.09236 14.3564 8.09082L14.2373 8.08496C13.9626 8.06061 13.7286 7.95176 13.5352 7.75781C13.3139 7.5359 13.2017 7.26128 13.2002 6.93457C13.1987 6.60819 13.31 6.33408 13.5332 6.1123C13.7566 5.8905 14.0314 5.77941 14.3564 5.7793Z" fill="#3FAD57"/>
</svg>
