<svg width="22" height="22" viewBox="0 0 22 22" fill="none" xmlns="http://www.w3.org/2000/svg">
<path d="M16.127 0C16.5388 0 16.9466 0.0816477 17.3271 0.239258C17.7076 0.396896 18.0535 0.627714 18.3447 0.918945H18.3457L20.6094 3.18555L20.7168 3.29785C21.2374 3.87302 21.5273 4.62286 21.5273 5.40234C21.5272 6.23381 21.1972 7.03209 20.6094 7.62012L17.7412 10.4883C17.7302 10.5344 17.7201 10.5808 17.7051 10.626L15.6699 16.7275L15.6709 16.7285C15.5878 16.9788 15.4451 17.206 15.2559 17.3896C15.0664 17.5734 14.8349 17.7087 14.582 17.7842L14.5811 17.7852L2.1084 21.4922C1.82073 21.5776 1.51487 21.582 1.22461 21.5059C0.934332 21.4297 0.670576 21.2753 0.461914 21.0596C0.253433 20.844 0.10755 20.5756 0.0410156 20.2832C-0.0253849 19.9907 -0.0108293 19.6849 0.0839844 19.4004L4.13379 7.25195C4.20809 7.02893 4.33005 6.82438 4.49023 6.65234L4.61719 6.53027C4.75009 6.41521 4.9013 6.32138 5.06445 6.25391H5.06543L10.8184 3.88574V3.88477C10.8803 3.8592 10.9437 3.83798 11.0078 3.82031L13.9092 0.918945C14.2003 0.627728 14.5464 0.396926 14.9268 0.239258C15.3072 0.0816221 15.7151 5.21127e-05 16.127 0ZM5.98047 8.03906L2.93164 17.1826L6.92285 13.1904C6.79355 12.8764 6.72669 12.5398 6.72656 12.2002C6.72653 11.8588 6.79431 11.5205 6.9248 11.2051C7.05545 10.8895 7.24685 10.602 7.48828 10.3604C7.72971 10.1188 8.01657 9.92674 8.33203 9.7959C8.64763 9.66508 8.98649 9.59777 9.32812 9.59766C9.66984 9.59758 10.0085 9.66521 10.3242 9.7959C10.6398 9.92655 10.9264 10.118 11.168 10.3594C11.656 10.8472 11.9305 11.5091 11.9307 12.1992C11.9307 12.8892 11.6568 13.552 11.1689 14.04C10.6811 14.5277 10.0189 14.8016 9.3291 14.8018C8.98562 14.8018 8.64941 14.7329 8.33789 14.6045L4.1416 18.8008L13.8311 15.9199L15.7363 10.2041L11.3594 5.8252L5.98047 8.03906ZM9.3291 11.5977C9.25021 11.5977 9.17152 11.6134 9.09863 11.6436C9.02575 11.6738 8.95913 11.7186 8.90332 11.7744C8.84754 11.8303 8.80266 11.8968 8.77246 11.9697C8.74233 12.0427 8.72654 12.1213 8.72656 12.2002C8.72664 12.2791 8.74224 12.3577 8.77246 12.4307C8.80205 12.5019 8.84534 12.5671 8.89941 12.6221C8.90056 12.6232 8.90218 12.6239 8.90332 12.625C8.90425 12.6259 8.90533 12.627 8.90625 12.6279C9.01891 12.7391 9.17071 12.8017 9.3291 12.8018C9.48861 12.8017 9.64203 12.7387 9.75488 12.626C9.86762 12.5132 9.9305 12.3597 9.93066 12.2002C9.93063 12.0407 9.86758 11.8873 9.75488 11.7744C9.69904 11.7186 9.6325 11.6738 9.55957 11.6436C9.48664 11.6134 9.40803 11.5977 9.3291 11.5977ZM16.127 2C15.9778 2.00005 15.8301 2.02984 15.6924 2.08691C15.5546 2.14404 15.4287 2.22754 15.3232 2.33301L13.0098 4.64648L16.8809 8.51953L19.1953 6.20605C19.4082 5.99309 19.5272 5.70344 19.5273 5.40234C19.5273 5.10134 19.408 4.81256 19.1953 4.59961H19.1943L16.9307 2.33301C16.8253 2.22759 16.7002 2.14404 16.5625 2.08691C16.4246 2.0298 16.2762 2 16.127 2Z" fill="#3FAD57"/>
</svg>
