<svg width="19" height="19" viewBox="0 0 19 19" fill="none" xmlns="http://www.w3.org/2000/svg">
<path d="M11.973 14.0541C13.9369 14.0541 15.5989 13.3737 16.9589 12.013C18.3189 10.6523 18.9993 8.99027 19 7.02703C19.0007 5.06378 18.3204 3.4018 16.9589 2.04108C15.5975 0.68036 13.9355 0 11.973 0C10.0105 0 8.34811 0.68036 6.98595 2.04108C5.62378 3.4018 4.94378 5.06378 4.94595 7.02703C4.94595 7.81982 5.07207 8.56757 5.32432 9.27027C5.57658 9.97297 5.91892 10.5946 6.35135 11.1351L0.297298 17.1892C0.0991001 17.3874 0 17.6396 0 17.9459C0 18.2523 0.0991001 18.5045 0.297298 18.7027C0.495497 18.9009 0.747747 19 1.05405 19C1.36036 19 1.61261 18.9009 1.81081 18.7027L7.86486 12.6486C8.40541 13.0811 9.02703 13.4234 9.72973 13.6757C10.4324 13.9279 11.1802 14.0541 11.973 14.0541ZM11.973 11.8919C10.6216 11.8919 9.47279 11.4191 8.52649 10.4735C7.58018 9.52793 7.10739 8.3791 7.10811 7.02703C7.10883 5.67495 7.58162 4.52649 8.52649 3.58162C9.47135 2.63676 10.6202 2.1636 11.973 2.16216C13.3258 2.16072 14.4742 2.63387 15.4184 3.58162C16.3625 4.52937 16.8357 5.67784 16.8378 7.02703C16.84 8.37622 16.3668 9.52504 15.4184 10.4735C14.4699 11.422 13.3214 11.8948 11.973 11.8919Z" fill="#9A9A9A"/>
</svg>
