<svg width="17" height="21" viewBox="0 0 17 21" fill="none" xmlns="http://www.w3.org/2000/svg">
<path d="M14.7002 0C15.2775 4.77398e-05 15.7721 0.205723 16.1836 0.617188C16.5951 1.02869 16.8004 1.52298 16.7998 2.09961V18.9004C16.7997 19.4777 16.5944 19.9723 16.1836 20.3838C15.7728 20.7953 15.2783 21.0007 14.7002 21H2.09961C1.52228 20.9999 1.02799 20.7946 0.617188 20.3838C0.206404 19.973 0.0007939 19.4784 0 18.9004V2.09961C9.25925e-05 1.52228 0.20568 1.02799 0.617188 0.617188C1.02869 0.20638 1.52298 0.000792232 2.09961 0H14.7002ZM7.34961 9.4502L9.97461 7.875L12.5996 9.4502V2.09961H7.34961V9.4502Z" fill="#3FAD57"/>
</svg>
