<svg width="22" height="22" viewBox="0 0 22 22" fill="none" xmlns="http://www.w3.org/2000/svg">
<path d="M19.1074 14.7119L17.5938 16.1836L18.6924 17.2207L20.165 15.7695L22 17.5938L17.5938 22L12.2031 16.6084L14.0381 14.7734L15.0742 15.8105L17.6348 13.2393L19.1074 14.7119ZM17.0234 8.85352L5.55664 20.3311H1.66895V16.4434L13.1357 4.96582L17.0234 8.85352ZM6.23047 1.83496L3.66992 4.40625L4.7793 5.50488L7.33008 2.93359L8.80176 4.40625L7.33008 5.86816L8.36621 6.90527L5.41211 9.78711L0 4.40625L4.40625 0L6.23047 1.83496ZM16.1426 1.96973C16.5469 1.56558 17.221 1.56545 17.6045 1.96973L20.0303 4.35449C20.4345 4.77956 20.4346 5.41211 20.0303 5.81641L18.1221 7.75488L14.2344 3.86719L16.1426 1.96973Z" fill="#3FAD57"/>
</svg>
