<svg width="22" height="22" viewBox="0 0 22 22" fill="none" xmlns="http://www.w3.org/2000/svg">
<path d="M10.6553 0C13.4813 0 16.1921 1.12277 18.1904 3.12109C20.1885 5.1193 21.3114 7.82949 21.3115 10.6553C21.3114 13.4812 20.1887 16.1922 18.1904 18.1904C16.1921 20.1886 13.4812 21.3115 10.6553 21.3115C7.82949 21.3114 5.1193 20.1885 3.12109 18.1904C1.12286 16.1922 9.69916e-05 13.4812 0 10.6553C0.000102589 7.82944 1.12298 5.11931 3.12109 3.12109C5.11933 1.12286 7.82936 0.000102595 10.6553 0ZM7.5459 14.707C7.74376 15.6935 8.01303 16.5948 8.34277 17.3643C8.7155 18.2339 9.13529 18.8649 9.55176 19.2676C9.96509 19.667 10.3396 19.8115 10.6553 19.8115C10.971 19.8115 11.3454 19.6671 11.7588 19.2676C12.1753 18.8649 12.595 18.234 12.9678 17.3643C13.2975 16.5948 13.5668 15.6935 13.7646 14.707H7.5459ZM2.44824 14.707C2.88669 15.5953 3.46802 16.4163 4.18164 17.1299C5.17424 18.1224 6.37231 18.8609 7.6748 19.3096C7.41477 18.9062 7.17686 18.452 6.96387 17.9551C6.5557 17.0026 6.23912 15.8979 6.01953 14.707H2.44824ZM15.291 14.707C15.0714 15.8979 14.7549 17.0026 14.3467 17.9551C14.1336 18.4522 13.8949 18.9061 13.6348 19.3096C14.938 18.8609 16.1369 18.1228 17.1299 17.1299C17.8435 16.4163 18.4248 15.5953 18.8633 14.707H15.291ZM1.86523 8.10352C1.62656 8.9256 1.50004 9.78389 1.5 10.6553C1.50003 11.5267 1.62653 12.3848 1.86523 13.207H5.79883C5.70723 12.3766 5.66017 11.5197 5.66016 10.6553C5.66017 9.79094 5.70728 8.9338 5.79883 8.10352H1.86523ZM7.30957 8.10352C7.21243 8.92332 7.16017 9.78117 7.16016 10.6553C7.16017 11.5295 7.21238 12.3871 7.30957 13.207H14.001C14.0982 12.3871 14.1504 11.5295 14.1504 10.6553C14.1504 9.78117 14.0981 8.92332 14.001 8.10352H7.30957ZM15.5117 8.10352C15.6033 8.9338 15.6504 9.79094 15.6504 10.6553C15.6504 11.5197 15.6033 12.3766 15.5117 13.207H19.4463C19.685 12.3848 19.8115 11.5267 19.8115 10.6553C19.8115 9.7839 19.685 8.92561 19.4463 8.10352H15.5117ZM7.67285 2.00098C6.37092 2.44974 5.17386 3.18942 4.18164 4.18164C3.4681 4.89522 2.88666 5.71541 2.44824 6.60352H6.01953C6.23909 5.41252 6.55564 4.30808 6.96387 3.35547C7.1767 2.85888 7.41302 2.40396 7.67285 2.00098ZM10.6553 1.5C10.3395 1.50005 9.96515 1.64343 9.55176 2.04297C9.13523 2.44561 8.71555 3.07655 8.34277 3.94629C8.01299 4.71586 7.74374 5.61691 7.5459 6.60352H13.7646C13.5668 5.61691 13.2976 4.71586 12.9678 3.94629C12.595 3.07662 12.1753 2.44559 11.7588 2.04297C11.3454 1.64348 10.971 1.5 10.6553 1.5ZM13.6367 2.00098C13.8967 2.40408 14.1338 2.85873 14.3467 3.35547C14.7549 4.30808 15.0715 5.41252 15.291 6.60352H18.8633C18.4249 5.7154 17.8434 4.89521 17.1299 4.18164C16.1373 3.18906 14.9394 2.44969 13.6367 2.00098Z" fill="#3FAD57"/>
</svg>
