<?xml version="1.0" encoding="UTF-8"?>
<svg id="Layer_1" xmlns="http://www.w3.org/2000/svg" version="1.1" viewBox="0 0 124 24">
  <!-- Generator: Adobe Illustrator 29.8.1, SVG Export Plug-In . SVG Version: 2.1.1 Build 2)  -->
  <defs>
    <style>
      .st0 {
        fill: #458c7d;
      }
    </style>
  </defs>
  <path class="st0" d="M5.86,18.71c1.64,0,2.99-.36,4.07-1.08,1.07-.72,1.61-1.77,1.61-3.14-.08-1.86-1.46-3.25-4.14-4.17l-1.44-.6c-.31-.1-.54-.2-.67-.3-.12-.08-.2-.22-.2-.37,0-.41.27-.62.82-.62.68,0,1.18.35,1.51,1.04l3.7-1.04c-.89-2.22-2.61-3.33-5.16-3.33-1.52,0-2.79.4-3.8,1.19-1.01.79-1.51,1.83-1.51,3.1,0,.4.06.77.17,1.11.12.34.29.64.52.89.23.26.46.48.67.67.21.19.49.37.82.53.33.17.58.29.76.36.17.07.41.16.71.26l.42.15,1.49.55c.36.13.6.24.71.34.11.09.16.22.16.36,0,.43-.4.65-1.22.65-1.19,0-1.9-.53-2.13-1.59l-3.72.84c.46,2.8,2.42,4.2,5.86,4.2h0ZM17.49,18.71c1.64,0,2.84-.63,3.62-1.89v1.61h5.11V5.37h-5.11v7.16c0,1.47-.5,2.21-1.51,2.21s-1.54-.74-1.54-2.21v-7.16h-5.11v7.65c0,3.79,1.51,5.69,4.54,5.69h0ZM33.6,18.43v-7.15c0-1.48.5-2.21,1.51-2.21s1.54.74,1.54,2.21v7.15h5.11v-7.65c0-3.79-1.51-5.69-4.54-5.69-1.64,0-2.85.63-3.62,1.89v-1.61h-5.11v13.07s5.11,0,5.11,0ZM48.98,18.43v-7.15c0-1.48.5-2.21,1.51-2.21s1.54.74,1.54,2.21v7.15h5.11v-7.65c0-3.79-1.51-5.69-4.54-5.69-1.64,0-2.85.63-3.62,1.89v-1.61h-5.11v13.07s5.11,0,5.11,0ZM64.96,24l8.29-18.63h-5.34l-2.53,6.68-2.26-6.68h-5.58l5.44,11.8-3.03,6.83h5.01ZM78.63,18.71c1.64,0,3-.36,4.07-1.08,1.08-.72,1.61-1.77,1.61-3.14-.08-1.86-1.46-3.25-4.14-4.17l-1.44-.6c-.31-.1-.54-.2-.67-.3-.12-.08-.2-.22-.2-.37,0-.41.27-.62.82-.62.68,0,1.18.35,1.51,1.04l3.7-1.04c-.89-2.22-2.61-3.33-5.16-3.33-1.52,0-2.79.4-3.8,1.19-1.01.8-1.51,1.83-1.51,3.11,0,.4.06.77.17,1.11.12.34.29.64.52.89.23.26.46.48.67.67.21.19.49.37.82.53.33.17.58.29.76.36.17.07.41.16.71.26l.42.15,1.49.55c.36.13.6.24.71.34.11.09.17.22.16.36,0,.43-.4.65-1.22.65-1.19,0-1.9-.53-2.13-1.59l-3.72.84c.46,2.8,2.42,4.2,5.86,4.2h0ZM88.43,4.57c.91,0,1.61-.22,2.11-.65.5-.43.74-.98.74-1.64s-.24-1.23-.72-1.65C90.08.21,89.37,0,88.43,0s-1.65.21-2.14.63c-.48.42-.72.97-.72,1.65s.25,1.21.75,1.64c.5.43,1.2.64,2.11.64ZM90.98,18.44V5.37h-5.11v13.07h5.11ZM98.72,18.71c1.74,0,2.98-.63,3.72-1.89v1.61h5.11V.47h-5.11v6.53c-.75-1.28-1.99-1.91-3.72-1.91s-3.21.64-4.38,1.93c-1.17,1.28-1.75,2.91-1.75,4.88s.58,3.6,1.75,4.88c1.17,1.28,2.63,1.92,4.38,1.92h0ZM100.11,14.81c-.73,0-1.31-.27-1.75-.82-.44-.55-.66-1.24-.66-2.09s.21-1.54.64-2.09c.45-.55,1.03-.82,1.76-.82s1.31.27,1.75.82c.44.55.66,1.24.66,2.09s-.22,1.54-.66,2.09c-.44.55-1.02.82-1.75.82h0ZM116.81,18.71c2.6,0,4.62-.75,6.08-2.26l-2.11-2.83c-1.04.85-2.22,1.27-3.52,1.27-.99,0-1.8-.22-2.42-.67-.62-.45-.93-.88-.93-1.29h9.6c.08-.3.12-.69.12-1.17,0-2.05-.67-3.68-2.02-4.87-1.35-1.19-3.07-1.79-5.18-1.79-2.25,0-4.03.67-5.33,2.01-1.31,1.34-1.96,2.96-1.96,4.84s.69,3.55,2.07,4.83c1.38,1.28,3.25,1.92,5.6,1.93ZM119.02,10.56h-5.11c.03-.61.3-1.08.79-1.4.5-.32,1.08-.48,1.76-.48s1.27.16,1.76.5c.5.33.76.8.79,1.39Z"/>
</svg>